<svg version="1.1" xmlns="http://www.w3.org/2000/svg" xmlns:xlink="http://www.w3.org/1999/xlink" width="1180" height="729"><defs><clipPath id="JtrisIXTkebw" fill="#ff00aa"><path fill="none" stroke="none" d=" M 0 0 L 1180 0 L 1180 729 L 0 729 L 0 0 Z"/></clipPath></defs><g transform="scale(1,1)" clip-path="url(#JtrisIXTkebw)"><g><rect fill="rgb(255,255,255)" stroke="none" x="0" y="0" width="1180" height="729" fill-opacity="1"/><path fill="none" stroke="rgb(192,192,192)" paint-order="fill stroke markers" d=" M 71.5 0.5 L 71.5 729.5 M 71.5 0.5 L 71.5 729.5 M 147.5 0.5 L 147.5 729.5 M 222.5 0.5 L 222.5 729.5 M 298.5 0.5 L 298.5 729.5 M 374.5 0.5 L 374.5 729.5 M 450.5 0.5 L 450.5 729.5 M 601.5 0.5 L 601.5 729.5 M 677.5 0.5 L 677.5 729.5 M 753.5 0.5 L 753.5 729.5 M 829.5 0.5 L 829.5 729.5 M 905.5 0.5 L 905.5 729.5 M 980.5 0.5 L 980.5 729.5 M 1056.5 0.5 L 1056.5 729.5 M 1132.5 0.5 L 1132.5 729.5" stroke-opacity="1" stroke-linecap="round" stroke-linejoin="round" stroke-miterlimit="10"/><path fill="none" stroke="rgb(192,192,192)" paint-order="fill stroke markers" d="" stroke-opacity="0.23529411764705882" stroke-linecap="round" stroke-linejoin="round" stroke-miterlimit="10"/><path fill="none" stroke="rgb(192,192,192)" paint-order="fill stroke markers" d=" M 0.5 11.5 L 1180.5 11.5 M 0.5 11.5 L 1180.5 11.5 M 0.5 87.5 L 1180.5 87.5 M 0.5 163.5 L 1180.5 163.5 M 0.5 239.5 L 1180.5 239.5 M 0.5 314.5 L 1180.5 314.5 M 0.5 390.5 L 1180.5 390.5 M 0.5 542.5 L 1180.5 542.5 M 0.5 618.5 L 1180.5 618.5 M 0.5 693.5 L 1180.5 693.5" stroke-opacity="1" stroke-linecap="round" stroke-linejoin="round" stroke-miterlimit="10"/><path fill="none" stroke="rgb(192,192,192)" paint-order="fill stroke markers" d="" stroke-opacity="0.23529411764705882" stroke-linecap="round" stroke-linejoin="round" stroke-miterlimit="10"/><path fill="none" stroke="rgb(0,0,0)" paint-order="fill stroke markers" d=" M 526 3 L 526 729" stroke-opacity="1" stroke-miterlimit="10" stroke-width="2"/><path fill="none" stroke="rgb(0,0,0)" paint-order="fill stroke markers" d=" M 526 2 L 520 8" stroke-opacity="1" stroke-miterlimit="10" stroke-width="2"/><path fill="none" stroke="rgb(0,0,0)" paint-order="fill stroke markers" d=" M 526 2 L 532 8" stroke-opacity="1" stroke-miterlimit="10" stroke-width="2"/><path fill="none" stroke="rgb(0,0,0)" paint-order="fill stroke markers" d=" M 0 466 L 1177 466" stroke-opacity="1" stroke-miterlimit="10" stroke-width="2"/><path fill="none" stroke="rgb(0,0,0)" paint-order="fill stroke markers" d=" M 1178 466 L 1172 460" stroke-opacity="1" stroke-miterlimit="10" stroke-width="2"/><path fill="none" stroke="rgb(0,0,0)" paint-order="fill stroke markers" d=" M 1178 466 L 1172 472" stroke-opacity="1" stroke-miterlimit="10" stroke-width="2"/><path fill="rgb(255,255,102)" stroke="none" paint-order="stroke fill markers" fill-rule="evenodd" d=" M 251.90616184857578 309.50245159142156 L 133.41237140137252 488.5795333950893 L 408.3391194133947 548.391179847126 Z" fill-opacity="0.788235294117647"/><path fill="none" stroke="rgb(255,0,0)" paint-order="fill stroke markers" d=" M 298.613695355129 -177.80044966065293 C 500.74592142798997 630.7284546307919 702.8781475008509 630.7284546307919 905.0103735737118 -177.80044966065293" stroke-opacity="0.6980392156862745" stroke-linecap="round" stroke-linejoin="round" stroke-miterlimit="10" stroke-width="4.5"/><path fill="rgb(0,255,0)" stroke="none" paint-order="stroke fill markers" d=" M 972.9454170192943 523.3258328495323 C 972.9454170192943 584.492301055985 923.3601973958863 634.0775206793929 862.1937291894337 634.0775206793929 C 801.027260982981 634.0775206793929 751.4420413595732 584.492301055985 751.4420413595732 523.3258328495323 C 751.4420413595732 462.1593646430796 801.027260982981 412.5741450196716 862.1937291894337 412.5741450196716 C 923.3601973958863 412.5741450196716 972.9454170192943 462.1593646430796 972.9454170192943 523.3258328495323 Z" fill-opacity="0.6274509803921569"/><path fill="none" stroke="rgb(0,255,0)" paint-order="fill stroke markers" d=" M 972.9454170192943 523.3258328495323 C 972.9454170192943 584.492301055985 923.3601973958863 634.0775206793929 862.1937291894337 634.0775206793929 C 801.027260982981 634.0775206793929 751.4420413595732 584.492301055985 751.4420413595732 523.3258328495323 C 751.4420413595732 462.1593646430796 801.027260982981 412.5741450196716 862.1937291894337 412.5741450196716 C 923.3601973958863 412.5741450196716 972.9454170192943 462.1593646430796 972.9454170192943 523.3258328495323 Z" stroke-opacity="0.6980392156862745" stroke-linecap="round" stroke-linejoin="round" stroke-miterlimit="10" stroke-width="2.5"/><g transform="scale(83,83)"><g transform="translate(10.927710843373495,2.002254320481928)"><path fill="rgb(0,0,0)" stroke="none" paint-order="stroke fill markers" d=" M 0.268 -0.314 L 0.268 -0.314 L 0.268 -0.092 Q 0.268 -0.051000000000000004 0.28 -0.043000000000000003 Q 0.291 -0.035 0.329 -0.035 Q 0.357 -0.035 0.357 -0.018000000000000002 Q 0.34800000000000003 -0.001 0.324 0 L 0.05 0 Q 0.02 0 0.017 -0.012 Q 0.016 -0.015 0.016 -0.018000000000000002 Q 0.016 -0.035 0.043000000000000003 -0.035 Q 0.09 -0.035 0.099 -0.049 Q 0.10400000000000001 -0.057 0.105 -0.077 L 0.105 -0.092 L 0.105 -0.593 Q 0.105 -0.635 0.092 -0.643 Q 0.081 -0.65 0.043000000000000003 -0.65 Q 0.016 -0.65 0.016 -0.667 Q 0.024 -0.684 0.05 -0.685 L 0.364 -0.685 Q 0.494 -0.685 0.5690000000000001 -0.625 L 0.5700000000000001 -0.624 Q 0.611 -0.59 0.624 -0.541 Q 0.629 -0.521 0.629 -0.498 Q 0.629 -0.369 0.489 -0.333 Q 0.47300000000000003 -0.328 0.454 -0.325 Q 0.495 -0.259 0.578 -0.14100000000000001 Q 0.652 -0.043000000000000003 0.6880000000000001 -0.035 Q 0.7030000000000001 -0.032 0.7030000000000001 -0.018000000000000002 Q 0.6940000000000001 -0.001 0.67 0 L 0.532 0 Q 0.508 0 0.503 -0.007 Q 0.501 -0.009000000000000001 0.499 -0.012 L 0.454 -0.082 L 0.304 -0.314 L 0.268 -0.314 M 0.461 -0.363 L 0.461 -0.363 Q 0.583 -0.385 0.593 -0.47800000000000004 Q 0.594 -0.488 0.594 -0.498 Q 0.594 -0.595 0.482 -0.631 Q 0.468 -0.636 0.454 -0.639 Q 0.492 -0.59 0.492 -0.497 Q 0.492 -0.404 0.461 -0.363 M 0.268 -0.596 L 0.268 -0.34900000000000003 Q 0.385 -0.34900000000000003 0.42 -0.373 Q 0.429 -0.38 0.436 -0.39 Q 0.457 -0.419 0.457 -0.497 Q 0.457 -0.613 0.395 -0.639 Q 0.37 -0.65 0.33 -0.65 Q 0.271 -0.65 0.268 -0.607 L 0.268 -0.596 M 0.132 -0.035 L 0.241 -0.035 Q 0.233 -0.053 0.233 -0.09 L 0.233 -0.599 Q 0.233 -0.634 0.246 -0.65 L 0.132 -0.65 Q 0.14 -0.632 0.14 -0.595 L 0.14 -0.09 Q 0.14 -0.053 0.132 -0.035 M 0.34500000000000003 -0.314 L 0.525 -0.035 L 0.622 -0.035 Q 0.548 -0.109 0.41600000000000004 -0.32 Q 0.386 -0.316 0.364 -0.316 Q 0.359 -0.316 0.34500000000000003 -0.314 Z"/></g><g transform="translate(11.649934843373495,1.583640920481928) scale(0.7,0.7)"><path fill="rgb(0,0,0)" stroke="none" paint-order="stroke fill markers" d=" M 0.449 -0.17400000000000002 L 0.449 -0.17400000000000002 L 0.421 0 L 0.05 0 Q 0.05 -0.025 0.056 -0.032 L 0.061 -0.037 L 0.253 -0.251 Q 0.358 -0.369 0.358 -0.47200000000000003 Q 0.358 -0.561 0.304 -0.607 L 0.303 -0.608 L 0.302 -0.608 Q 0.27 -0.635 0.224 -0.635 Q 0.152 -0.635 0.109 -0.5730000000000001 Q 0.097 -0.555 0.089 -0.533 Q 0.092 -0.534 0.10200000000000001 -0.534 Q 0.14200000000000002 -0.534 0.153 -0.498 L 0.153 -0.497 Q 0.155 -0.49 0.155 -0.482 Q 0.155 -0.442 0.117 -0.431 Q 0.109 -0.429 0.10300000000000001 -0.429 Q 0.066 -0.429 0.054 -0.46 Q 0.05 -0.47100000000000003 0.05 -0.485 Q 0.05 -0.562 0.109 -0.617 Q 0.162 -0.666 0.23700000000000002 -0.666 Q 0.34700000000000003 -0.666 0.40800000000000003 -0.592 Q 0.443 -0.549 0.448 -0.49 Q 0.449 -0.481 0.449 -0.47200000000000003 Q 0.449 -0.399 0.394 -0.333 Q 0.365 -0.299 0.304 -0.243 L 0.243 -0.189 L 0.233 -0.18 L 0.127 -0.077 L 0.307 -0.077 Q 0.395 -0.077 0.402 -0.085 Q 0.41200000000000003 -0.099 0.424 -0.17400000000000002 L 0.449 -0.17400000000000002 Z"/></g></g><g transform="scale(43,43)"><g transform="translate(9.465116279069768,3.639599372093023)"><path fill="rgb(255,0,0)" stroke="none" paint-order="stroke fill markers" d=" M 0.645 -0.682 L 0.739 -0.067 Q 0.741 -0.054 0.7435 -0.051500000000000004 Q 0.746 -0.049 0.755 -0.048 Q 0.769 -0.047 0.794 -0.047 Q 0.81 -0.047 0.8165 -0.0465 Q 0.8230000000000001 -0.046 0.8285 -0.042 Q 0.834 -0.038 0.834 -0.029 Q 0.834 -0.016 0.8280000000000001 -0.009000000000000001 Q 0.8220000000000001 -0.002 0.8175 -0.001 Q 0.8130000000000001 0 0.806 0 Q 0.794 0 0.771 -0.001 Q 0.748 -0.002 0.736 -0.002 Q 0.724 -0.002 0.7010000000000001 -0.0025 Q 0.678 -0.003 0.667 -0.003 Q 0.65 -0.003 0.592 -0.0015 Q 0.534 0 0.518 0 Q 0.496 0 0.496 -0.018000000000000002 Q 0.496 -0.032 0.502 -0.0385 Q 0.508 -0.045 0.514 -0.046 Q 0.52 -0.047 0.533 -0.047 Q 0.5740000000000001 -0.047 0.598 -0.052000000000000005 L 0.5750000000000001 -0.198 L 0.305 -0.198 L 0.213 -0.058 Q 0.23500000000000001 -0.047 0.271 -0.047 Q 0.297 -0.047 0.297 -0.029 Q 0.297 0 0.27 0 Q 0.252 0 0.215 -0.0015 Q 0.178 -0.003 0.159 -0.003 Q 0.14300000000000002 -0.003 0.111 -0.0015 Q 0.079 0 0.064 0 Q 0.056 0 0.0505 -0.0055 Q 0.045 -0.011 0.045 -0.018000000000000002 Q 0.045 -0.031 0.051000000000000004 -0.038 Q 0.057 -0.045 0.062 -0.046 Q 0.067 -0.047 0.077 -0.047 Q 0.111 -0.047 0.132 -0.0535 Q 0.153 -0.06 0.1595 -0.0665 Q 0.166 -0.073 0.17400000000000002 -0.085 L 0.5670000000000001 -0.686 Q 0.577 -0.7020000000000001 0.5855 -0.7065 Q 0.594 -0.711 0.611 -0.711 Q 0.63 -0.711 0.636 -0.706 Q 0.642 -0.7010000000000001 0.645 -0.682 M 0.524 -0.533 L 0.336 -0.245 L 0.5680000000000001 -0.245 L 0.524 -0.533 Z"/></g></g><g transform="scale(43,43)"><g transform="translate(7.186046511627907,9.058204023255815)"><path fill="rgb(255,204,51)" stroke="none" paint-order="stroke fill markers" d=" M 0.163 -0.067 L 0.306 -0.637 Q 0.264 -0.639 0.245 -0.639 Q 0.227 -0.639 0.22 -0.6395000000000001 Q 0.213 -0.64 0.20800000000000002 -0.644 Q 0.203 -0.648 0.203 -0.657 Q 0.203 -0.671 0.209 -0.6775 Q 0.215 -0.684 0.221 -0.685 Q 0.227 -0.686 0.24 -0.686 L 0.641 -0.686 Q 0.744 -0.686 0.799 -0.648 Q 0.854 -0.61 0.854 -0.547 Q 0.854 -0.488 0.8005 -0.433 Q 0.747 -0.378 0.637 -0.358 Q 0.711 -0.352 0.7575000000000001 -0.317 Q 0.804 -0.28200000000000003 0.804 -0.221 Q 0.804 -0.186 0.7855 -0.1485 Q 0.767 -0.111 0.7315 -0.077 Q 0.6960000000000001 -0.043000000000000003 0.6355000000000001 -0.021500000000000002 Q 0.5750000000000001 0 0.501 0 L 0.077 0 Q 0.043000000000000003 0 0.043000000000000003 -0.018000000000000002 Q 0.043000000000000003 -0.038 0.055 -0.045 Q 0.059000000000000004 -0.047 0.08700000000000001 -0.047 Q 0.123 -0.047 0.14 -0.048 Q 0.153 -0.049 0.1565 -0.052000000000000005 Q 0.16 -0.055 0.163 -0.067 M 0.431 -0.621 L 0.369 -0.375 L 0.527 -0.375 Q 0.5750000000000001 -0.375 0.614 -0.3925 Q 0.653 -0.41000000000000003 0.6745 -0.4375 Q 0.6960000000000001 -0.465 0.7075 -0.4945 Q 0.719 -0.524 0.719 -0.552 Q 0.719 -0.639 0.618 -0.639 L 0.46900000000000003 -0.639 Q 0.451 -0.639 0.442 -0.638 Q 0.435 -0.637 0.431 -0.621 M 0.312 -0.047 L 0.47200000000000003 -0.047 Q 0.522 -0.047 0.5615 -0.0655 Q 0.601 -0.084 0.6225 -0.1135 Q 0.644 -0.14300000000000002 0.6545 -0.17450000000000002 Q 0.665 -0.20600000000000002 0.665 -0.23700000000000002 Q 0.665 -0.339 0.555 -0.339 L 0.36 -0.339 L 0.28800000000000003 -0.048 Q 0.295 -0.047 0.312 -0.047 Z"/></g></g><g transform="scale(43,43)"><g transform="translate(21.74418604651163,9.895413325581396)"><path fill="rgb(0,255,0)" stroke="none" paint-order="stroke fill markers" d=" M 0.852 -0.673 L 0.795 -0.448 Q 0.791 -0.432 0.787 -0.429 Q 0.783 -0.426 0.767 -0.426 Q 0.74 -0.426 0.74 -0.441 Q 0.74 -0.446 0.7415 -0.458 Q 0.743 -0.47000000000000003 0.743 -0.47600000000000003 Q 0.743 -0.55 0.6990000000000001 -0.603 Q 0.655 -0.656 0.5700000000000001 -0.656 Q 0.49 -0.656 0.4205 -0.625 Q 0.35100000000000003 -0.594 0.309 -0.544 Q 0.264 -0.492 0.23600000000000002 -0.41250000000000003 Q 0.20800000000000002 -0.333 0.201 -0.28550000000000003 Q 0.194 -0.23800000000000002 0.194 -0.212 Q 0.194 -0.12 0.252 -0.076 Q 0.311 -0.03 0.40800000000000003 -0.03 Q 0.498 -0.03 0.581 -0.084 Q 0.664 -0.138 0.6930000000000001 -0.229 Q 0.6970000000000001 -0.242 0.7005 -0.245 Q 0.704 -0.248 0.718 -0.248 Q 0.741 -0.248 0.741 -0.234 Q 0.741 -0.226 0.734 -0.20400000000000001 Q 0.727 -0.182 0.6980000000000001 -0.1395 Q 0.669 -0.097 0.626 -0.065 Q 0.515 0.017 0.381 0.017 Q 0.24 0.017 0.1475 -0.051000000000000004 Q 0.055 -0.11900000000000001 0.055 -0.253 Q 0.055 -0.315 0.0755 -0.3785 Q 0.096 -0.442 0.1385 -0.5 Q 0.181 -0.558 0.23900000000000002 -0.6035 Q 0.297 -0.649 0.379 -0.676 Q 0.461 -0.7030000000000001 0.554 -0.7030000000000001 Q 0.672 -0.7030000000000001 0.737 -0.631 L 0.8300000000000001 -0.7030000000000001 Q 0.855 -0.7030000000000001 0.855 -0.6890000000000001 Q 0.855 -0.6880000000000001 0.852 -0.673 Z"/></g></g></g></g></svg>